<svg width="18" height="18" viewBox="0 0 18 18" fill="none" xmlns="http://www.w3.org/2000/svg">
<path fill-rule="evenodd" clip-rule="evenodd" d="M9.125 0.75C4.56865 0.75 0.875 4.44365 0.875 9C0.875 13.5563 4.56865 17.25 9.125 17.25C13.6813 17.25 17.375 13.5563 17.375 9C17.375 4.44365 13.6813 0.75 9.125 0.75ZM2.375 9C2.375 5.27208 5.39708 2.25 9.125 2.25C12.8529 2.25 15.875 5.27208 15.875 9C15.875 12.7279 12.8529 15.75 9.125 15.75C5.39708 15.75 2.375 12.7279 2.375 9ZM9.03241 4.91667C6.80861 4.91667 5.04167 6.76489 5.04167 9C5.04167 11.2351 6.80861 13.0833 9.03241 13.0833C9.9354 13.0833 10.7685 12.7757 11.4354 12.2604C11.7371 12.0273 12.0049 11.7517 12.2306 11.4427C12.475 11.1082 12.4019 10.639 12.0674 10.3947C11.7329 10.1504 11.2637 10.2235 11.0194 10.5579C10.8763 10.7537 10.7074 10.9273 10.5183 11.0734C10.102 11.3951 9.58853 11.5833 9.03241 11.5833C7.67659 11.5833 6.54167 10.4468 6.54167 9C6.54167 7.55321 7.67659 6.41667 9.03241 6.41667C9.58853 6.41667 10.102 6.60492 10.5183 6.92659C10.7074 7.07265 10.8763 7.24626 11.0194 7.44206C11.2637 7.77654 11.7329 7.84963 12.0674 7.60531C12.4019 7.36099 12.475 6.89177 12.2306 6.55729C12.0049 6.2483 11.7371 5.97272 11.4354 5.73959C10.7685 5.22434 9.9354 4.91667 9.03241 4.91667Z" fill="#78829D"/>
</svg>
