<svg width="17" height="16" viewBox="0 0 17 16" fill="none" xmlns="http://www.w3.org/2000/svg">
<g clip-path="url(#clip0_7878_2124)">
<path d="M3.16665 9.99992H4.49998V13.3333H12.5V2.66659H4.49998V5.99992H3.16665V1.99992C3.16665 1.82311 3.23688 1.65354 3.36191 1.52851C3.48693 1.40349 3.6565 1.33325 3.83331 1.33325H13.1666C13.3435 1.33325 13.513 1.40349 13.6381 1.52851C13.7631 1.65354 13.8333 1.82311 13.8333 1.99992V13.9999C13.8333 14.1767 13.7631 14.3463 13.6381 14.4713C13.513 14.5963 13.3435 14.6666 13.1666 14.6666H3.83331C3.6565 14.6666 3.48693 14.5963 3.36191 14.4713C3.23688 14.3463 3.16665 14.1767 3.16665 13.9999V9.99992ZM7.16665 7.33325V5.33325L10.5 7.99992L7.16665 10.6666V8.66659H1.83331V7.33325H7.16665Z" fill="white"/>
</g>
<defs>
<clipPath id="clip0_7878_2124">
<rect width="16" height="16" fill="white" transform="translate(0.5)"/>
</clipPath>
</defs>
</svg>
