<svg width="134" height="32" viewBox="0 0 134 32" fill="none" xmlns="http://www.w3.org/2000/svg">
<g clip-path="url(#clip0_7835_90637)">
<path d="M23.5387 2.2666L19.8293 5.64393C21.5561 6.16552 23.1454 7.06403 24.4827 8.2746C29.1653 12.5413 29.1653 19.4586 24.4827 23.7253C21.0267 26.8719 15.6853 28.8746 8.46132 29.7333L12.1707 26.3559C10.4439 25.8344 8.85455 24.9358 7.51732 23.7253C2.83465 19.4586 2.80665 12.5666 7.51732 8.2746C10.9733 5.12793 16.316 3.12527 23.54 2.2666H23.5387ZM16 10.6666C12.6867 10.6666 9.99999 13.0533 9.99999 15.9999C9.99999 18.9466 12.6867 21.3333 16 21.3333C19.3133 21.3333 22 18.9466 22 15.9999C22 13.0533 19.3133 10.6666 16 10.6666Z" fill="#3E97FF"/>
</g>
<path d="M40 28V7.6C40 5.2 41.1657 4 43.4971 4H55.4286C56.6629 4 57.6914 4.20571 58.5143 4.61714C59.36 5.00571 59.9886 5.58857 60.4 6.36571C60.8343 7.12 61.1314 7.92 61.2914 8.76571C61.4514 9.58857 61.5314 10.5714 61.5314 11.7143C61.5314 12.8571 61.4514 13.8514 61.2914 14.6971C61.1314 15.5429 60.8343 16.3543 60.4 17.1314C59.9886 17.8857 59.36 18.4686 58.5143 18.88C57.6914 19.2914 56.6629 19.4971 55.4286 19.4971H44.5257V28H40ZM44.5257 15.8971H53.2C54.6629 15.8971 55.6343 15.5771 56.1143 14.9371C56.6171 14.2743 56.8686 13.2 56.8686 11.7143C56.8686 10.2286 56.6171 9.17714 56.1143 8.56C55.6343 7.92 54.6629 7.6 53.2 7.6H46.24C45.5543 7.6 45.0971 7.71429 44.8686 7.94286C44.64 8.17143 44.5257 8.62857 44.5257 9.31429V15.8971Z" fill="#3E97FF"/>
<path d="M84.1179 28H74.1065C72.1179 28 70.4379 27.7143 69.0665 27.1429C67.6951 26.5486 66.6437 25.6914 65.9122 24.5714C65.1808 23.4286 64.6665 22.1714 64.3694 20.8C64.0722 19.4286 63.9237 17.8286 63.9237 16C63.9237 14.1714 64.0722 12.5714 64.3694 11.2C64.6665 9.82857 65.1808 8.58286 65.9122 7.46286C66.6437 6.32 67.6951 5.46286 69.0665 4.89143C70.4379 4.29714 72.1179 4 74.1065 4H83.7408V7.6H76.2322C73.3065 7.6 71.2951 8.19429 70.1979 9.38286C69.1237 10.5486 68.5865 12.7543 68.5865 16C68.5865 19.2457 69.1237 21.4629 70.1979 22.6514C71.2951 23.8171 73.3065 24.4 76.2322 24.4H84.1179V28Z" fill="#3E97FF"/>
<path d="M99.708 28H95.1823V7.6H85.8223V4H109.102V7.6H99.708V28Z" fill="#3E97FF"/>
<path d="M124.351 28H119.825V7.6H110.465V4H133.745V7.6H124.351V28Z" fill="#3E97FF"/>
<defs>
<clipPath id="clip0_7835_90637">
<rect width="32" height="32" fill="white"/>
</clipPath>
</defs>
</svg>
